<svg width="30" height="30" viewBox="0 0 30 30" fill="none" xmlns="http://www.w3.org/2000/svg">
    <path d="M.292 30c-.188-.147-.367-.307-.259-.583.108-.276.326-.298.574-.298.954 0 1.908-.004 2.863-.008H14.059c.117.004.234.01.35.01h9.25c.586 0 1.17-.005 1.755-.009 1.313.004 2.627.012 3.94.006.274 0 .499.05.646.294v.587L.293 30z" fill="#29B188"/>
    <path d="M25.418 29.111c-.587.004-1.174.009-1.756.01h-9.247c-.117 0-.234-.007-.351-.01 0-2.872 0-5.745.007-8.617 0-.246.073-.492.111-.734l.119-.012h4.827l5.42.01c.68 0 .876.192.875.863l-.005 8.49zm-6.312-4.036h3.924c.328 0 .53-.165.529-.418 0-.283-.195-.46-.524-.46h-7.792c-.342 0-.535.165-.534.441 0 .276.186.44.53.44l3.867-.003zm.027-2.286h3.894c.33 0 .532-.162.533-.413 0-.285-.193-.457-.52-.465h-7.731a1.77 1.77 0 0 0-.176 0 .44.44 0 0 0-.011.874c.078.005.156.005.234 0l3.777.004zm.01 4.571h3.926c.265 0 .433-.112.485-.363.051-.25-.123-.454-.408-.507a1.24 1.24 0 0 0-.233-.01h-7.56c-.446 0-.652.146-.647.45.005.304.193.428.627.428l3.81.002z" fill="#FE788F"/>
    <path d="M15.939 19.744h-1.64c-.135-.038-.27-.11-.404-.111-1.385-.008-2.77-.011-4.154 0-.18 0-.358.11-.537.17h-.177V18.04h.177c.16.06.318.168.478.17 1.432.014 2.863.008 4.296.007.3 0 .485-.156.497-.411.012-.275-.147-.44-.47-.47-.098-.058-.196-.164-.293-.166a215.117 215.117 0 0 0-3.802 0c-.1 0-.198.108-.294.166l-.35.12h-.233V15.82l.177-.062c.159.06.317.169.477.17 1.42.014 2.841.007 4.261.009.248 0 .458-.08.521-.328.074-.276-.073-.465-.34-.553-.098-.058-.197-.165-.294-.167-1.346-.01-2.692-.01-4.037 0-.099 0-.197.109-.293.167l-.234.12h-.233v-1.7h.228c.128.058.255.166.383.167 1.451.012 2.902.01 4.353.006.277 0 .456-.165.482-.41.026-.246-.12-.403-.409-.47-.079-.047-.158-.135-.238-.136a326.18 326.18 0 0 0-4.03 0c-.101 0-.202.088-.302.136H9.39l-.294.057-.055-1.641h.229c.137.058.274.166.413.167 1.424.013 2.848.01 4.273.007.334 0 .526-.17.532-.452.005-.267-.195-.426-.542-.426H9.704c-.124.01-.246.03-.367.057h-.237V9.071l.115-.176.177-.233.062-.112.934-.007h4.237c.157 0 .313 0 .469.006.587.013.86.284.86.867v2.635l-.014 7.693z" fill="#BFCCCD"/>
    <path d="M7.73 29.112H4.688v-1.748H6.26c.248 0 .446-.128.454-.362.006-.147-.133-.317-.248-.437-.067-.069-.22-.073-.33-.077-.473-.008-.948 0-1.433 0v-1.41h1.562c.248 0 .416-.13.462-.367a.367.367 0 0 0-.27-.456 1.112 1.112 0 0 0-.312-.054c-.476-.006-.954 0-1.442 0v-1.409h1.495c.334 0 .544-.177.54-.445-.005-.267-.211-.431-.551-.433H4.7v-1.407h1.352c.309 0 .513-.187.513-.44 0-.254-.206-.431-.52-.433-.445-.004-.89 0-1.342 0v-1.412h1.352c.31 0 .514-.186.514-.44 0-.255-.206-.432-.52-.434-.446-.003-.89 0-1.355 0 0-.398.017-.788-.005-1.174-.017-.31.09-.53.352-.682h2.693c-.004 4.537-.005 9.076-.004 13.62z" fill="#F9C049"/>
    <path d="M7.73 29.112v-13.63c0-1.997.022-3.995 0-5.992-.01-.74.389-.967.954-.935.116.005.234 0 .35 0l.41.005-.062.112-.183.236-.115.176v1.468c-.02.214-.038.429-.056.644l.056 1.64c-.02.215-.038.43-.056.645v15.632l-1.298-.001z" fill="#AEBBBB"/>
    <path d="M5.034 15.485c-.263.152-.367.372-.351.681.022.388.005.778.005 1.175h1.354c.314 0 .514.175.52.433.007.257-.2.44-.514.44-.446.004-.892 0-1.352 0v1.406h1.341c.315 0 .518.175.522.433.003.258-.202.44-.514.44-.446.004-.893 0-1.351 0V21.9H6.18c.34 0 .547.166.55.433.004.266-.205.44-.538.444H4.696v1.407h1.442c.106.002.212.02.313.053a.366.366 0 0 1 .27.456c-.046.237-.215.367-.463.367H4.696v1.406c.486 0 .96-.004 1.433 0 .113 0 .263.008.33.077.115.12.254.294.249.437-.01.234-.207.36-.455.361H4.688v1.749H3.469V16.179c0-.536.192-.728.718-.727.281.02.565.028.847.033z" fill="#F7A84A"/>
    <path d="M22.856 1.896c1.653.308 2.774 1.623 2.749 3.221-.026 1.554-1.3 2.99-2.744 3.092a1.522 1.522 0 0 0-.231-.113 3.182 3.182 0 0 1-2.225-2.669c-.147-1.321.527-2.68 1.81-3.234.214-.093.425-.198.64-.297z" fill="#F9C049"/>
    <path d="M14.61 8.551h-4.238V6.483c0-.293-.03-.596.175-.85l.229-.014h2.064l1.107.01c.48.007.653.178.656.646.003.76.006 1.518.007 2.276z" fill="#A5AFAF"/>
    <path d="M19.127 19.744h-2.015c0-2.23.002-4.46.006-6.69l1.766 1.478c.215.181.243.426.242.688-.002 1.509-.002 3.017 0 4.524z" fill="#1B9AAE"/>
    <path d="M17.117 13.053c0 2.231-.002 4.461-.006 6.691h-1.174V12.06l1.18.995z" fill="#0E7C95"/>
    <path d="M22.856 1.896c-.214.1-.425.204-.64.297-1.284.554-1.958 1.908-1.811 3.234a3.182 3.182 0 0 0 2.225 2.67c.08.03.157.068.231.112-.753.157-1.451-.012-2.096-.397-1.206-.719-1.737-1.995-1.518-3.294a3.177 3.177 0 0 1 2.705-2.628c.292-.042.6.001.904.006z" fill="#F7A749"/>
    <path d="M10.546 5.635c-.205.253-.176.553-.175.85v2.068l-.934.006-.409-.005V6.243c0-.465.15-.617.61-.617.303 0 .606.006.908.009z" fill="#989F9F"/>
    <path d="M11.367 3.451V.706a2.27 2.27 0 0 1 0-.233c.03-.294.213-.483.454-.473.242.01.42.207.42.502.005.984 0 1.967 0 2.95h-.874z" fill="#A4D8F3"/>
    <path d="M11.367 3.451h.88c-.183.367-.191.758-.18 1.155.01.337 0 .676 0 1.013H10.77c0-.524.001-1.05.004-1.574.006-.452.126-.573.593-.594z" fill="#AFBBBB"/>
    <path d="M12.073 5.622c0-.338.007-.676 0-1.014-.012-.397 0-.789.18-1.154.468.073.586.204.586.656v1.509l-.766.003zM9.027 29.11v-9.306h.177c-.1.541.034.701.587.701h3.034v1.406c-1.042 0-2.083-.01-3.125.01-.166 0-.396.102-.48.232-.21.322.025.635.45.636h3.157v1.406H9.79c-.135-.002-.27.02-.398.064a.39.39 0 0 0-.201.556c.106.214.293.259.513.258 1.042-.004 2.083 0 3.125 0v1.405H9.73c-.355 0-.596.204-.584.48.012.246.232.398.584.398h3.099l.01 1.748-3.812.006z" fill="#BFCCCD"/>
    <path d="M12.827 26.484v-5.976c.038-.571.235-.76.8-.76.184 0 .366.005.553.008-.04.246-.111.492-.112.734-.009 2.873-.006 5.745-.006 8.617h-1.224l-.01-1.748v-.875z" fill="#FB5C70"/>
    <path d="M19.105 25.078h-3.867c-.344 0-.529-.155-.53-.44 0-.287.192-.441.535-.441h7.791c.33 0 .523.176.524.46 0 .252-.2.416-.528.417a814.93 814.93 0 0 1-3.925.003zM19.132 22.792h-3.776a1.906 1.906 0 0 1-.234 0 .44.44 0 0 1 .011-.874 1.77 1.77 0 0 1 .176 0h7.73c.327.008.52.18.52.466 0 .25-.203.41-.533.413H21.68l-2.548-.005zM19.143 27.363h-3.808c-.433 0-.621-.128-.626-.428-.005-.3.2-.45.646-.45h7.56c.078-.005.157-.001.234.01.285.053.458.257.407.508-.05.25-.22.367-.485.362-1.31-.005-2.62-.002-3.928-.002z" fill="#FB5B6F"/>
    <path d="M14.18 19.756c-.184 0-.367-.008-.553-.008-.565 0-.762.188-.8.76H9.791c-.556 0-.69-.16-.587-.702.179-.06.357-.168.537-.17a231.05 231.05 0 0 1 4.154 0c.135 0 .269.074.404.112l-.119.008z" fill="#A5AEAE"/>
    <path d="M14.005 17.34c.319.032.482.195.47.47-.012.255-.197.41-.498.41-1.431 0-2.862.007-4.295-.007-.16 0-.318-.11-.478-.17l.056-.586.35-.12 4.395.003zM14.122 15.056c.27.089.41.277.34.553-.063.249-.273.329-.521.328-1.42 0-2.84.005-4.262-.009-.159 0-.317-.11-.476-.17l.056-.583.233-.119h4.63zM9.32 10.546c.12-.029.243-.048.366-.058 1.415-.003 2.83-.003 4.245 0 .346 0 .547.16.542.426-.006.283-.199.452-.533.452-1.424 0-2.849.006-4.273-.006-.139 0-.276-.11-.413-.168-.171-.236-.109-.446.065-.646zM14.064 12.77c.289.066.434.233.41.469-.026.235-.206.409-.483.41-1.451.004-2.902.006-4.353-.006-.128 0-.255-.109-.383-.168-.203-.277-.073-.495.125-.701h.114l4.57-.004z" fill="#A5AFAF"/>
    <path d="M14.121 15.056H9.497c.098-.059.197-.166.294-.168 1.345-.01 2.69-.01 4.037 0 .098.003.196.111.293.168zM14.005 17.34H9.61c.1-.058.198-.164.294-.166 1.267-.01 2.535-.01 3.802 0 .103.002.201.108.3.166zM14.064 12.77h-4.57c.1-.048.2-.135.301-.136 1.345-.01 2.688-.01 4.03 0 .08 0 .16.09.24.136zM9.38 12.774c-.2.206-.328.424-.125.702h-.228l.056-.645.297-.057zM9.319 10.546c-.174.2-.236.41-.063.644h-.23c.02-.214.038-.43.057-.644h.236zM9.26 15.175l-.056.583-.177.062v-.645h.233zM9.26 17.46l-.056.588h-.177v-.588h.233zM9.2 8.908l.176-.233-.177.233zM9.084 9.08l.115-.176-.115.176z" fill="#BFCCCD"/>
    <path d="M12.827 21.913v.881H9.671c-.426 0-.66-.314-.451-.636.084-.13.315-.229.48-.231 1.045-.024 2.086-.014 3.127-.014zM12.828 24.198v.881H9.703c-.22 0-.405-.044-.514-.258a.39.39 0 0 1 .202-.557c.128-.043.262-.065.398-.063 1.014-.005 2.026-.003 3.039-.003zM12.827 26.484v.88H9.73c-.352 0-.572-.152-.584-.398-.012-.275.228-.479.584-.48 1.032-.004 2.066-.002 3.098-.002z" fill="#A5AFAF"/>
</svg>
