<svg width="32" height="33" viewBox="0 0 32 33" fill="none" xmlns="http://www.w3.org/2000/svg">
    <g filter="url(#xewtg51j4a)" stroke="#fff" stroke-width="1.5" stroke-linecap="round" stroke-linejoin="round">
        <path d="m23.613 5.175-.088 4.737c-.012.65.4 1.513.925 1.9l3.1 2.35c1.988 1.5 1.662 3.338-.713 4.088L22.8 19.512c-.675.213-1.387.95-1.563 1.638l-.962 3.675c-.762 2.9-2.662 3.188-4.237.637l-2.2-3.562c-.4-.65-1.35-1.137-2.1-1.1l-4.175.212c-2.988.15-3.838-1.575-1.888-3.85l2.475-2.874c.463-.538.675-1.538.463-2.213L7.35 8.038c-.737-2.376.588-3.688 2.95-2.913l3.688 1.213c.625.2 1.562.062 2.087-.325l3.85-2.775c2.075-1.5 3.738-.625 3.688 1.937zM29.387 27.5 25.6 23.712"/>
    </g>
    <defs>
        <filter id="xewtg51j4a" x="-1" y="0" width="33" height="34" filterUnits="userSpaceOnUse" color-interpolation-filters="sRGB">
            <feFlood flood-opacity="0" result="BackgroundImageFix"/>
            <feColorMatrix in="SourceAlpha" values="0 0 0 0 0 0 0 0 0 0 0 0 0 0 0 0 0 0 127 0" result="hardAlpha"/>
            <feOffset dx="-2" dy="3"/>
            <feGaussianBlur stdDeviation=".5"/>
            <feColorMatrix values="0 0 0 0 0 0 0 0 0 0 0 0 0 0 0 0 0 0 0.1 0"/>
            <feBlend in2="BackgroundImageFix" result="effect1_dropShadow_9112_21181"/>
            <feBlend in="SourceGraphic" in2="effect1_dropShadow_9112_21181" result="shape"/>
        </filter>
    </defs>
</svg>
