<svg width="148" height="132" viewBox="0 0 148 132" fill="none" xmlns="http://www.w3.org/2000/svg">
    <path d="M3.881 121.809 0 103.552h4.062l1.89 9.729c.034.121.06.286.077.495.017.209.034.348.052.417.017-.087.034-.234.051-.443.018-.209.043-.383.078-.522l2.303-9.676h3.441l2.329 9.702c.035.157.069.348.104.574.034.226.051.365.051.418a3.08 3.08 0 0 0 .052-.287c.017-.122.034-.235.052-.339l.052-.313 1.862-9.755h4.063l-3.907 18.257h-3.726l-2.536-10.146a15.495 15.495 0 0 1-.155-1.017c-.07.591-.121.922-.155.991l-2.433 10.172H3.881zM27.424 122.122c-1.949 0-3.484-.617-4.605-1.851-1.122-1.235-1.682-2.948-1.682-5.139 0-2.138.56-3.834 1.681-5.086 1.139-1.252 2.674-1.878 4.606-1.878 1.76 0 3.191.539 4.295 1.617 1.104 1.079 1.656 2.644 1.656 4.695 0 .852-.034 1.504-.103 1.956H24.81c.034.835.293 1.461.776 1.878.483.4 1.096.6 1.837.6 1.208 0 2.2-.469 2.976-1.408l2.173 2.191c-1.328 1.617-3.044 2.425-5.149 2.425zm-2.587-8.528h4.942c-.19-1.478-1.027-2.217-2.51-2.217-.673 0-1.225.199-1.656.599-.431.383-.69.922-.776 1.618zM43.968 121.809v-.991c-.794.87-1.89 1.304-3.287 1.304-1.466 0-2.665-.373-3.596-1.121-.914-.765-1.371-1.852-1.371-3.26 0-1.374.534-2.426 1.604-3.156 1.07-.748 2.32-1.122 3.752-1.122 1.242 0 2.208.157 2.898.47v-.731c0-.608-.19-1.069-.57-1.382-.38-.33-.905-.496-1.578-.496-1.432 0-2.846.47-4.243 1.409l-1.165-2.895c1.622-1.113 3.51-1.67 5.667-1.67 3.743 0 5.615 1.739 5.615 5.217v8.424h-3.726zm-2.562-2.869c.931 0 1.785-.313 2.562-.939v-1.199a7.734 7.734 0 0 0-2.252-.313c-1.552 0-2.328.426-2.328 1.278 0 .782.672 1.173 2.018 1.173zM55.307 122.122c-2.225 0-3.338-1.217-3.338-3.651v-6.677h-1.811v-3.313h1.811v-3.703l3.726-1.8v5.503h2.872v3.313h-2.872v6.312c0 .243.07.434.207.574a.859.859 0 0 0 .544.182c.759 0 1.518-.174 2.277-.522l-.414 3.183c-.811.399-1.812.599-3.002.599zM61.708 121.809v-17.083l3.752-1.748v6.729c.845-1.026 2.044-1.539 3.596-1.539 1.225 0 2.294.392 3.209 1.174.914.783 1.371 2.052 1.371 3.808v8.659h-3.752v-7.146c0-.991-.164-1.713-.492-2.165-.31-.452-.845-.678-1.604-.678-1.552 0-2.328.93-2.328 2.791v7.198h-3.752zM83.04 122.122c-1.95 0-3.484-.617-4.606-1.851-1.12-1.235-1.681-2.948-1.681-5.139 0-2.138.56-3.834 1.681-5.086 1.139-1.252 2.674-1.878 4.606-1.878 1.76 0 3.191.539 4.295 1.617 1.104 1.079 1.656 2.644 1.656 4.695 0 .852-.034 1.504-.103 1.956h-8.461c.034.835.293 1.461.776 1.878.483.4 1.095.6 1.837.6 1.208 0 2.2-.469 2.976-1.408l2.173 2.191c-1.328 1.617-3.044 2.425-5.149 2.425zm-2.587-8.528h4.942c-.19-1.478-1.027-2.217-2.51-2.217-.673 0-1.225.199-1.656.599-.431.383-.69.922-.776 1.618zM92.106 121.809v-13.328h3.752v1.2c.172-.348.483-.687.931-1.017.448-.33.975-.496 1.578-.496 1.035 0 1.907.374 2.614 1.122l-.492 3.443c-.724-.609-1.51-.913-2.355-.913-1.517 0-2.276.921-2.276 2.765v7.224h-3.752zM114.277 121.809l-1.345-3.547h-6.805l-1.346 3.547h-4.295l7.142-18.257h3.777l7.168 18.257h-4.296zm-2.665-7.198-1.552-3.939a14.21 14.21 0 0 1-.544-1.539c-.069.296-.25.809-.543 1.539l-1.552 3.939h4.191zM127.378 122.122c-1.138 0-2.01-.391-2.613-1.173v4.355L121.013 127v-18.519h3.752v.913c.586-.817 1.475-1.226 2.665-1.226 1.656 0 2.975.609 3.959 1.826 1 1.2 1.5 2.921 1.5 5.164 0 2.139-.517 3.835-1.552 5.086-1.035 1.252-2.355 1.878-3.959 1.878zm-.595-3.651c.742 0 1.32-.287 1.734-.861.414-.591.621-1.408.621-2.452 0-2.225-.785-3.338-2.355-3.338-.845 0-1.518.269-2.018.808v4.982c.103.226.336.426.698.6.363.174.802.261 1.32.261zM142.489 122.122c-1.139 0-2.01-.391-2.614-1.173v4.355L136.123 127v-18.519h3.752v.913c.587-.817 1.475-1.226 2.665-1.226 1.656 0 2.976.609 3.959 1.826 1.001 1.2 1.501 2.921 1.501 5.164 0 2.139-.518 3.835-1.553 5.086-1.034 1.252-2.354 1.878-3.958 1.878zm-.596-3.651c.742 0 1.32-.287 1.734-.861.414-.591.621-1.408.621-2.452 0-2.225-.785-3.338-2.355-3.338-.845 0-1.517.269-2.018.808v4.982c.104.226.337.426.699.6.362.174.802.261 1.319.261z" fill="#fff"/>
    <g filter="url(#jzrrdemvza)">
        <path fill-rule="evenodd" clip-rule="evenodd" d="M103.633 74.613a28.55 28.55 0 0 1-8.141 4.622C80.696 84.68 64.363 77.041 59.01 62.176c-2.691-7.474-2.094-15.352 1.046-22.031-9.244 7.497-13.213 20.33-8.957 32.15 5.352 14.865 21.685 22.503 36.48 17.06 7.357-2.707 12.948-8.138 16.053-14.742z" fill="#FBFF22"/>
    </g>
    <path fill-rule="evenodd" clip-rule="evenodd" d="M103.633 74.613a28.55 28.55 0 0 1-8.141 4.622C80.696 84.68 64.363 77.041 59.01 62.176c-2.691-7.474-2.094-15.352 1.046-22.031-9.244 7.497-13.213 20.33-8.957 32.15 5.352 14.865 21.685 22.503 36.48 17.06 7.357-2.707 12.948-8.138 16.053-14.742z" fill="#FBFF22"/>
    <defs>
        <filter id="jzrrdemvza" x="9.393" y=".145" width="134.24" height="130.965" filterUnits="userSpaceOnUse" color-interpolation-filters="sRGB">
            <feFlood flood-opacity="0" result="BackgroundImageFix"/>
            <feBlend in="SourceGraphic" in2="BackgroundImageFix" result="shape"/>
            <feGaussianBlur stdDeviation="20" result="effect1_foregroundBlur_5776_14421"/>
        </filter>
    </defs>
</svg>
