<svg width="32" height="33" viewBox="0 0 32 33" fill="none" xmlns="http://www.w3.org/2000/svg">
<g filter="url(#filter0_d_5959_22264)">
<path d="M16.9998 23.4493C21.6666 23.4493 25.4498 19.6661 25.4498 14.9993C25.4498 10.3325 21.6666 6.54932 16.9998 6.54932C12.333 6.54932 8.5498 10.3325 8.5498 14.9993C8.5498 19.6661 12.333 23.4493 16.9998 23.4493Z" stroke="white" stroke-width="1.5" stroke-linecap="round" stroke-linejoin="round"/>
<path d="M26.282 24.282L26.113 24.113M26.113 5.887L26.282 5.718L26.113 5.887ZM7.718 24.282L7.887 24.113L7.718 24.282ZM17 2.104V2V2.104ZM17 28V27.896V28ZM4.104 15H4H4.104ZM30 15H29.896H30ZM7.887 5.887L7.718 5.718L7.887 5.887Z" stroke="white" stroke-width="2" stroke-linecap="round" stroke-linejoin="round"/>
</g>
<defs>
<filter id="filter0_d_5959_22264" x="0" y="1" width="31" height="32" filterUnits="userSpaceOnUse" color-interpolation-filters="sRGB">
<feFlood flood-opacity="0" result="BackgroundImageFix"/>
<feColorMatrix in="SourceAlpha" type="matrix" values="0 0 0 0 0 0 0 0 0 0 0 0 0 0 0 0 0 0 127 0" result="hardAlpha"/>
<feOffset dx="-2" dy="3"/>
<feGaussianBlur stdDeviation="0.5"/>
<feColorMatrix type="matrix" values="0 0 0 0 0 0 0 0 0 0 0 0 0 0 0 0 0 0 0.1 0"/>
<feBlend mode="normal" in2="BackgroundImageFix" result="effect1_dropShadow_5959_22264"/>
<feBlend mode="normal" in="SourceGraphic" in2="effect1_dropShadow_5959_22264" result="shape"/>
</filter>
</defs>
</svg>
