<svg width="24" height="24" viewBox="0 0 24 24" fill="none" xmlns="http://www.w3.org/2000/svg">
    <path d="M8.52 21.276c-1.28 0-2.368-.248-3.264-.744a6.046 6.046 0 0 1-2.148-1.992 9.196 9.196 0 0 1-1.2-2.808 13.358 13.358 0 0 1-.372-3.132c0-1.032.128-2.06.384-3.084a9.027 9.027 0 0 1 1.212-2.808A6.282 6.282 0 0 1 5.304 4.68c.888-.512 1.96-.768 3.216-.768 1.048 0 1.94.16 2.676.48.736.312 1.34.716 1.812 1.212.48.496.848 1.012 1.104 1.548l-2.184 1.08a6.725 6.725 0 0 0-.852-1.056 3.148 3.148 0 0 0-1.068-.72c-.408-.176-.904-.264-1.488-.264-.832 0-1.536.196-2.112.588a4.226 4.226 0 0 0-1.38 1.524 7.367 7.367 0 0 0-.744 2.076 11.186 11.186 0 0 0-.228 2.22c0 .784.084 1.556.252 2.316.168.752.436 1.436.804 2.052a4.523 4.523 0 0 0 1.392 1.464c.56.36 1.232.54 2.016.54.864 0 1.564-.196 2.1-.588.536-.4.996-.916 1.38-1.548l2.232.828a6.797 6.797 0 0 1-1.236 1.836 5.6 5.6 0 0 1-1.872 1.296c-.736.32-1.604.48-2.604.48zM19.69 9.864a3.126 3.126 0 0 1-1.575-.405 3.132 3.132 0 0 1-1.125-1.098 2.977 2.977 0 0 1-.414-1.557c0-.588.138-1.113.414-1.575a3.06 3.06 0 0 1 1.125-1.089 3.182 3.182 0 0 1 1.575-.396c.576 0 1.098.132 1.566.396.468.264.84.627 1.116 1.09.276.461.414.986.414 1.574 0 .576-.138 1.095-.414 1.557a3.077 3.077 0 0 1-2.682 1.503zm0-1.476c.432 0 .789-.15 1.071-.45.282-.306.423-.684.423-1.134 0-.468-.141-.849-.423-1.143-.282-.294-.639-.44-1.071-.44-.42 0-.78.146-1.08.44-.3.294-.45.675-.45 1.143 0 .45.15.828.45 1.134.3.3.66.45 1.08.45z" fill="#444E72"/>
</svg>
