<svg width="24" height="24" viewBox="0 0 24 24" fill="none" xmlns="http://www.w3.org/2000/svg">
    <path d="M2.232 21V4.2h10.464v2.292h-8.04v4.68h5.256v2.292H4.656V21H2.232zM17.69 9.864a3.126 3.126 0 0 1-1.575-.405 3.132 3.132 0 0 1-1.125-1.098 2.977 2.977 0 0 1-.414-1.557c0-.588.138-1.113.414-1.575a3.06 3.06 0 0 1 1.125-1.089 3.182 3.182 0 0 1 1.575-.396c.576 0 1.098.132 1.566.396.468.264.84.627 1.116 1.09.276.461.414.986.414 1.574 0 .576-.138 1.095-.414 1.557a3.077 3.077 0 0 1-2.682 1.503zm0-1.476c.432 0 .789-.15 1.071-.45.282-.306.423-.684.423-1.134 0-.468-.141-.849-.423-1.143-.282-.294-.639-.44-1.071-.44-.42 0-.78.146-1.08.44-.3.294-.45.675-.45 1.143 0 .45.15.828.45 1.134.3.3.66.45 1.08.45z" fill="#444E72"/>
</svg>
