<?xml version="1.0" encoding="utf-8"?>
<!-- Generator: Adobe Illustrator 25.4.1, SVG Export Plug-In . SVG Version: 6.00 Build 0)  -->
<svg version="1.1" id="Layer_1" xmlns="http://www.w3.org/2000/svg" xmlns:xlink="http://www.w3.org/1999/xlink" x="0px" y="0px"
	 viewBox="0 0 31 30" style="enable-background:new 0 0 31 30;" xml:space="preserve">
<style type="text/css">
	.st0{fill:#FFFFFF;}
</style>
<path class="st0" d="M26.7,20.3h-7.5c-0.5,0-0.9-0.4-0.9-0.9c0-0.5,0.4-0.9,0.9-0.9h7.5c0.5,0,0.9,0.4,0.9,0.9
	C27.6,19.9,27.2,20.3,26.7,20.3z M26.7,25.3h-7.5c-0.5,0-0.9-0.4-0.9-0.9c0-0.5,0.4-0.9,0.9-0.9h7.5c0.5,0,0.9,0.4,0.9,0.9
	C27.6,24.9,27.2,25.3,26.7,25.3z M27.9,10.6V5c0-1.8-0.8-2.5-2.8-2.5h-5.1c-2,0-2.8,0.7-2.8,2.5v5.7c0,1.8,0.8,2.5,2.8,2.5h5
	C27.1,13.1,27.9,12.4,27.9,10.6z M13.5,10.6V5c0-1.8-0.8-2.5-2.8-2.5H5.7c-2,0-2.8,0.7-2.8,2.5v5.7c0,1.8,0.8,2.5,2.8,2.5h5.1
	C12.7,13.1,13.5,12.4,13.5,10.6z M13.5,24.7v-5.1c0-2-0.8-2.8-2.8-2.8H5.7c-2,0-2.8,0.8-2.8,2.8v5c0,2,0.8,2.8,2.8,2.8h5.1
	C12.7,27.5,13.5,26.7,13.5,24.7z"/>
</svg>
