<svg width="312" height="287" viewBox="0 0 312 287" fill="none" xmlns="http://www.w3.org/2000/svg">
    <g filter="url(#j6cmqe0kta)" fill="#fff">
        <path d="M163.911 129.411c-.047.718-.097 1.44-.147 2.158l.36.159c.249-.279.46-.588.63-.92 2.087-5.86 6.14-9.519 12.309-10.847 5.827-1.252 12.416 1.318 15.876 6.233-1.543.843-3.106 1.648-4.626 2.544-.73.422-1.384.972-2.07 1.464l-.737-.66a7.999 7.999 0 0 0-3.497-1.865 8.06 8.06 0 0 0-3.973.035 7.996 7.996 0 0 0-3.462 1.929 7.87 7.87 0 0 0-2.09 3.342c-.36 1.114-.354 1.978.826 2.584.384.201.667.617.98.933-2 1.206-3.979 2.396-5.943 3.626-.323.268-.606.58-.843.926-6.029-3.583-12.932-.561-14.872 5.013a3.906 3.906 0 0 1-1.443 1.79 6.974 6.974 0 0 0-2.111 2.05 6.895 6.895 0 0 0-1.069 2.729c-1.313.679-2.617 1.371-3.94 2.027-1.17.58-2.356 1.12-3.536 1.681-1.02-3.329-.667-6.655 1.14-9.486 2.203-3.428 4.946-6.513 7.456-9.746.023-.03.073-.04.11-.056a8.095 8.095 0 0 0 1.51-.498c2.646-1.46 5.256-2.986 7.906-4.44 1.723-.939 3.5-1.802 5.256-2.705z"/>
        <path d="M140.522 156.352c1.18-.56 2.367-1.1 3.537-1.68 1.333-.66 2.626-1.349 3.939-2.027-.063 4.103 3.154 6.591 6.817 6.466 4.476-.158 8.959 0 13.439 0a4.375 4.375 0 0 1-.8.837c-3.467 2.024-6.953 4.015-10.416 6.048-.334.195-.523.627-.783.946-2.334.142-4.667.093-6.877-.794-.936-.376-1.37-.04-1.949.659-3.874 4.671-7.827 9.278-11.713 13.935-2.333 2.792-5.183 2.667-7.369.06-3.26-3.889-6.583-7.729-9.876-11.589.406-.181.823-.329 1.216-.553 1.943-1.049 3.88-2.11 5.82-3.165l6.386 7.502c.164-.093.317-.203.457-.33 3.123-3.839 6.256-7.673 9.332-11.535.24-.307.174-.989.044-1.421-.34-1.15-.797-2.248-1.204-3.359z"/>
        <path d="M156.255 166.942c.26-.33.45-.751.783-.946 3.463-2.034 6.95-4.024 10.416-6.048.304-.243.573-.526.8-.84 3.24 0 6.483.059 9.719-.083a7.618 7.618 0 0 0 3.38-.989c2.61-1.516 3.736-5.181 1.523-8.569 2.69-1.516 5.366-3.055 8.076-4.532a19.282 19.282 0 0 1 2.377-.929c-.607.777-1.137 1.631-1.84 2.307-.703.675-.81 1.173-.457 2.04a12.622 12.622 0 0 1-.623 11.288c-2.57 4.671-6.666 7.215-12.046 7.294-7.369.129-14.739.02-22.108.007z"/>
        <path d="M193.328 144.016c-.812.257-1.606.568-2.377.93-2.709 1.476-5.386 3.015-8.076 4.531a6.754 6.754 0 0 0-2.557-1.808 6.822 6.822 0 0 0-3.109-.469c-.786.049-1.58 0-2.366 0-1.74.026-2.903-.775-3.893-2.192-.99-1.417-2.294-2.637-3.457-3.955a4.55 4.55 0 0 1 .843-.926c1.964-1.236 3.957-2.426 5.943-3.626.637.66 1.36 1.23 1.887 1.952.473.659 1 .771 1.76.88 1.886.215 3.749.598 5.566 1.143 2.166.712 2.333.785 3.496-1.239a8.187 8.187 0 0 0 .747-1.819c.757-2.637.06-5.027-1.503-7.215.686-.491 1.333-1.042 2.07-1.464 1.52-.883 3.083-1.7 4.626-2.544 3.96 5.036 4.136 12.986.4 17.821zM100.093 125.449c.236-4.1 1.173-8.015 3.12-11.667.586-.106 1.253-.07 1.739-.33 4.043-2.271 8.046-4.614 12.073-6.921 5.609-3.201 11.236-6.378 16.839-9.588.36-.208.596-.623.893-.943 3.616.07 6.973 1.127 10.222 2.614.334.151.667.276 1 .418-.236.31-.403.732-.716.916-1.667.989-3.357 1.889-5 2.891a19.992 19.992 0 0 0-2.033 1.599c-.667-.119-1.303-.241-1.957-.35-7.642-1.262-14.399.633-20.248 5.63-3.556 3.039-5.79 6.921-7.24 11.298-1.129.564-2.266 1.118-3.389 1.691-1.75.906-3.52 1.839-5.303 2.742z"/>
        <path d="M134.755 96c-.296.33-.533.735-.893.943-5.603 3.21-11.229 6.387-16.839 9.588-4.026 2.307-8.029 4.637-12.072 6.921-.487.274-1.153.237-1.74.33 2.243-5.086 5.883-9.015 10.379-12.215 3.633-2.587 7.666-4.423 12.063-5.109 2.996-.461 6.076-.326 9.102-.458zM125.506 165.498c-1.94 1.055-3.876 2.116-5.819 3.165-.394.21-.81.372-1.217.553l-7.766-11.107c.437-.227.88-.442 1.313-.679 1.857-1.022 3.713-2.053 5.567-3.078 2.639 3.715 5.28 7.431 7.922 11.146zM163.91 129.411c-1.757.903-3.533 1.767-5.267 2.716-2.649 1.454-5.259 2.966-7.906 4.44a8.082 8.082 0 0 1-1.509.497c1.613-1.196 3.136-2.541 4.869-3.526.977-.554 1.527-1.098 1.607-2.162.086-1.141.333-2.308.263-3.422-.167-2.307-.503-4.614-.77-6.921.464-.153.919-.335 1.36-.544 1.903-1.041 3.793-2.113 5.686-3.171a27.661 27.661 0 0 1 1.667 12.093zM138.256 104.442a19.843 19.843 0 0 1 2.033-1.598c1.643-.989 3.333-1.899 5-2.89.313-.185.48-.607.716-.917a28.284 28.284 0 0 1 10 7.604c-1.257.834-2.524 1.648-3.77 2.508-.93.636-1.83 1.318-2.747 1.978a26.453 26.453 0 0 0-11.232-6.685zM100.092 125.451c1.773-.917 3.543-1.836 5.333-2.743 1.123-.573 2.26-1.127 3.389-1.69-1.079 4.255-.966 8.526-.173 12.808-.92.425-1.843.837-2.756 1.272-1.533.735-3.057 1.48-4.587 2.221-.926-3.905-1.54-7.828-1.206-11.868z"/>
        <path d="M149.505 111.109c.916-.659 1.816-1.319 2.746-1.978 1.247-.85 2.513-1.674 3.77-2.508a27.26 27.26 0 0 1 6.223 10.672c-1.893 1.058-3.783 2.129-5.686 3.171-.442.209-.896.391-1.36.544a27.028 27.028 0 0 0-5.693-9.901zM117.583 154.352c-1.853 1.025-3.709 2.056-5.566 3.078-.433.238-.876.452-1.313.679l-5.47-10.128a22.74 22.74 0 0 1 2.037-1.358c1.586-.841 3.213-1.609 4.823-2.406l5.489 10.135z"/>
        <path d="M112.091 144.216c-1.61.798-3.236 1.566-4.823 2.406-.703.416-1.383.87-2.036 1.358l-3.707-9.841c-.1-.267-.156-.548-.233-.821 1.53-.742 3.053-1.487 4.586-2.222.914-.435 1.837-.847 2.753-1.272l3.46 10.392zM168.976 118.573c-.95-.587-2.196-.972-2.789-1.809a23.064 23.064 0 0 1-2.667-5.119c-.7-1.846.353-3.771 2.157-4.568 1.803-.798 3.896-.3 4.939 1.381a30.033 30.033 0 0 1 2.333 4.492c1.037 2.555-1.016 5.353-3.779 5.32l-.194.303zM205.194 132.623c1.053.076 2.256.125 3.449.26 1.827.205 3.353 1.978 3.357 3.857 0 2.027-1.477 3.859-3.503 3.955-1.823.09-3.65-.005-5.453-.284-1.943-.296-3.223-2.307-3.037-4.344.167-1.793 1.887-3.362 3.797-3.451.413-.009.83.007 1.39.007zM204.704 154.134c-.2 1.678-.93 2.868-2.333 3.586-1.334.689-2.804.755-4-.198a32.254 32.254 0 0 1-4.07-3.81c-1.2-1.351-.93-3.493.367-4.851 1.39-1.457 3.473-1.816 5.073-.623a28.252 28.252 0 0 1 3.919 3.605c.537.59.707 1.517 1.044 2.291zM190.275 109.181c-.286 1.117-.606 2.949-1.236 4.67-.667 1.823-2.877 2.713-4.753 2.165-2-.583-3.137-2.432-2.75-4.647a34.244 34.244 0 0 1 1-4.186 3.903 3.903 0 0 1 1.757-2.242 3.972 3.972 0 0 1 2.829-.467c1.907.346 3.187 1.971 3.153 4.707zM202.417 114.701c1.753.102 3.046.959 3.696 2.538.65 1.579.39 3.046-.873 4.16a32.113 32.113 0 0 1-4.156 3.114c-1.577.989-3.84.478-4.957-.916-1.219-1.516-1.299-3.8.087-5.076a39.416 39.416 0 0 1 4.536-3.405c.437-.299 1.097-.286 1.667-.415zM145.722 124.959c1.563 7.472-3.777 14.934-11.483 16.104-4.126.629-7.802-.283-10.999-2.966.221-.288.479-.546.767-.768 1.236-.735 2.526-1.385 3.75-2.136.963-.59 1.859-1.282 2.786-1.928 3.873.329 5.623-.729 7.356-4.397 1.737-.887 3.47-1.783 5.213-2.66.857-.422 1.737-.83 2.61-1.249zM118.247 129.408c-.766-3.694.27-7.01 2.37-10.003a13.637 13.637 0 0 1 6.67-5.046 13.798 13.798 0 0 1 8.396-.227c1.763.527 3.333 1.694 4.999 2.567-2.333 1.319-4.686 2.637-6.999 3.998-.28.165-.437.531-.667.804-3.206-.29-5.363 1.174-6.736 3.956-1.033.484-2.077.952-3.1 1.456-1.656.818-3.293 1.662-4.933 2.495z"/>
        <path d="M133.007 121.507c.213-.273.37-.639.666-.804 2.334-1.351 4.667-2.67 7-3.998 2.846 2.057 4.436 4.862 5.053 8.24-.873.419-1.753.827-2.62 1.262-1.743.877-3.476 1.773-5.213 2.66 0-.89.133-1.813-.05-2.666-.553-2.574-2.356-3.995-4.836-4.694zM118.247 129.406c1.64-.834 3.276-1.677 4.923-2.498 1.023-.504 2.067-.972 3.1-1.457-.65 4.008.726 6.536 4.263 7.825-.927.659-1.823 1.338-2.787 1.928-1.223.751-2.513 1.401-3.749 2.136-.288.222-.546.48-.767.768a12.55 12.55 0 0 1-3.411-3.836 12.41 12.41 0 0 1-1.572-4.866z"/>
    </g>
    <defs>
        <filter id="j6cmqe0kta" x="0" y="0" width="312" height="286.797" filterUnits="userSpaceOnUse" color-interpolation-filters="sRGB">
            <feFlood flood-opacity="0" result="BackgroundImageFix"/>
            <feColorMatrix in="SourceAlpha" values="0 0 0 0 0 0 0 0 0 0 0 0 0 0 0 0 0 0 127 0" result="hardAlpha"/>
            <feOffset dy="4"/>
            <feGaussianBlur stdDeviation="50"/>
            <feComposite in2="hardAlpha" operator="out"/>
            <feColorMatrix values="0 0 0 0 0 0 0 0 0 0 0 0 0 0 0 0 0 0 0.2 0"/>
            <feBlend in2="BackgroundImageFix" result="effect1_dropShadow_5793_13133"/>
            <feBlend in="SourceGraphic" in2="effect1_dropShadow_5793_13133" result="shape"/>
            <feColorMatrix in="SourceAlpha" values="0 0 0 0 0 0 0 0 0 0 0 0 0 0 0 0 0 0 127 0" result="hardAlpha"/>
            <feOffset dx="-18" dy="11"/>
            <feGaussianBlur stdDeviation="15"/>
            <feComposite in2="hardAlpha" operator="arithmetic" k2="-1" k3="1"/>
            <feColorMatrix values="0 0 0 0 1 0 0 0 0 1 0 0 0 0 1 0 0 0 1 0"/>
            <feBlend in2="shape" result="effect2_innerShadow_5793_13133"/>
        </filter>
    </defs>
</svg>
