<svg width="121" height="120" viewBox="0 0 121 120" fill="none" xmlns="http://www.w3.org/2000/svg">
    <path d="M50.492 49.721c-1.031 1.25-2.188 1.563-3.963.966-4.389-1.473-8.772-2.964-13.15-4.472a1.905 1.905 0 0 0-2.02.312c-3.66 2.794-7.357 5.535-11.05 8.282-2.269 1.684-5 .984-5.803-1.503a4.318 4.318 0 0 1-.169-1.375c.047-4.641.094-9.288.197-13.929a1.9 1.9 0 0 0-.919-1.822c-3.587-2.5-7.187-5-10.687-7.58-.937-.691-1.625-1.71-2.428-2.579v-2.11c.81-1.493 2.128-2.187 3.728-2.652 4.537-1.35 9.031-2.841 13.543-4.279.313.36.566.741.894 1.07a72373.8 72373.8 0 0 0 30.852 30.852c.3.294.65.55.975.82z" fill="#FED745"/>
    <path d="M50.49 49.722c-.312-.275-.674-.525-.974-.825a71225.01 71225.01 0 0 1-30.852-30.853c-.313-.313-.597-.71-.894-1.066 1.369-4.5 2.769-8.984 4.081-13.5C22.314 1.891 23.086.666 24.64 0h1.875c.937.906 1.993 1.713 2.753 2.74 2.543 3.438 5 6.97 7.44 10.491a1.706 1.706 0 0 0 1.64.822c4.56-.1 9.122-.128 13.684-.237 1.672-.041 3 .462 3.797 1.978.822 1.562.256 2.915-.719 4.215-2.715 3.613-5.384 7.263-8.124 10.857a1.874 1.874 0 0 0-.29 2.018 1118.51 1118.51 0 0 1 4.44 13.047c.45 1.357.487 2.681-.644 3.79z" fill="#FEEE4A"/>
    <path d="M120.494 11.484c-1.363 3.297-4.338 2.475-7.031 2.6v3.338c-.028 2.147-1.547 3.7-3.566 3.668-1.971-.028-3.437-1.562-3.459-3.662-.016-1.081 0-2.163 0-3.366h-3.365c-2.147-.03-3.697-1.562-3.663-3.575.032-1.968 1.563-3.422 3.669-3.437h3.306c.203-2.603-.712-5.666 2.631-7.031h1.875c3.291 1.368 2.475 4.34 2.6 7.009 2.665.131 5.643-.697 7.009 2.6l-.006 1.856z" fill="#FED746"/>
    <path d="M97.51 97.263c1.529-1.522 3.582-1.619 5.088-.125a2861.032 2861.032 0 0 1 16.796 16.803c.453.456.738 1.075 1.1 1.616v1.64l-1.169 1.875c-.171-.209-.331-.431-.521-.625a10536.876 10536.876 0 0 0-20.58-20.58c-.22-.242-.476-.42-.713-.604z" fill="#FED748"/>
    <path d="M97.51 97.263c.237.196.493.374.712.593 6.875 6.856 13.735 13.717 20.58 20.581.191.191.35.413.522.625l-1.409.938h-1.875c-.825-.625-1.728-1.178-2.456-1.903a2980.772 2980.772 0 0 1-15.793-15.775c-1.61-1.622-1.694-3.456-.281-5.06z" fill="#FEB455"/>
    <path d="M108.306 91.757c-.918-.496-1.875-.768-2.484-1.38a7552.77 7552.77 0 0 1-29.74-29.713 3.498 3.498 0 0 1-.077-4.963c1.328-1.384 3.437-1.431 4.971-.103.147.128.282.272.42.41l29.06 29.062c1.775 1.775 1.928 4.013.282 5.431-.635.55-1.525.803-2.432 1.256z" fill="#FED847"/>
    <path d="M61.816 85.117c-.847-.484-1.853-.815-2.525-1.481a3247.57 3247.57 0 0 1-21.283-21.25c-1.594-1.597-1.613-3.781-.138-5.21 1.475-1.428 3.585-1.309 5.125.229 7.098 7.083 14.187 14.173 21.268 21.268 1.216 1.216 1.525 2.66.938 4.063-.572 1.31-1.797 2.116-3.385 2.381z" fill="#FEB456"/>
    <path d="M91.901 37.499V34.13c.031-2.1 1.494-3.637 3.469-3.66 1.975-.021 3.528 1.529 3.556 3.688.015 1.05 0 2.103 0 3.34h3.162c2.294 0 3.859 1.432 3.866 3.5.006 2.07-1.563 3.517-3.831 3.532h-3.197v3.31c-.022 2.187-1.5 3.728-3.525 3.718-2.025-.01-3.478-1.562-3.5-3.75v-3.284h-3.337c-2.163-.028-3.716-1.531-3.69-3.556.021-1.972 1.562-3.438 3.659-3.47 1.08-.012 2.165 0 3.368 0z" fill="#FED746"/>
    <path d="M26.282 84.373h-1.625c-3.75 0-5.384-1.044-5.403-3.488-.019-2.444 1.612-3.544 5.459-3.544h1.563v-3.296c.021-2.188 1.49-3.732 3.512-3.732 2.022 0 3.49 1.563 3.512 3.732v3.296h1.684c3.725 0 5.363 1.088 5.344 3.544-.019 2.456-1.634 3.488-5.4 3.488H33.3v3.353c-.028 2.156-1.543 3.71-3.568 3.675-1.975-.031-3.438-1.563-3.456-3.672-.007-1.053.006-2.106.006-3.356z" fill="#FEB455"/>
    <path d="M68.418 91.966c.03-2.118.674-3.26 2.068-3.86a3.365 3.365 0 0 1 3.894.7c1.465 1.4 2.878 2.86 4.312 4.295 4 4 8.002 7.998 12.006 11.993 1.097 1.088 1.543 2.332 1.143 3.822-.543 2.025-3.05 3.091-4.918 2.088a6.07 6.07 0 0 1-1.378-1.072c-5.25-5.235-10.506-10.46-15.706-15.744-.718-.731-1.134-1.76-1.421-2.222z" fill="#FEB456"/>
    <path d="M61.184 60.67c1.607-1.5 3.516-1.446 5.163.194 3.375 3.354 6.741 6.718 10.1 10.09 5.32 5.326 10.641 10.65 15.964 15.976 1.625 1.631 1.675 3.531.185 5.175-.238-.203-.488-.388-.707-.606-10.012-10-20.022-20.01-30.03-30.032-.243-.243-.45-.528-.675-.797z" fill="#FED748"/>
    <path d="M61.184 60.67c.225.268.431.553.675.797 10 10.014 20.01 20.025 30.03 30.03.219.22.469.404.706.607-1.637 1.756-3.868 1.172-5.071-.044-1.62-1.634-3.257-3.256-4.885-4.884a29231.257 29231.257 0 0 0-21.274-21.284c-1.712-1.716-1.762-3.678-.18-5.222z" fill="#FEB454"/>
    <path d="M56.444 40.026c.266-1.525.834-2.575 2.019-3.253a3.343 3.343 0 0 1 3.553.05c.364.226.697.497.994.807 2.6 2.585 5.192 5.177 7.777 7.775 1.69 1.697 1.794 3.75.294 5.287-1.5 1.538-3.562 1.413-5.278-.294-2.628-2.612-5.275-5.203-7.837-7.88-.672-.688-1.022-1.654-1.522-2.492zM113.051 66.795a3.515 3.515 0 1 1 3.459-3.54 3.547 3.547 0 0 1-3.459 3.54zM81.357 16.368a3.515 3.515 0 1 1-3.522-3.478 3.54 3.54 0 0 1 3.522 3.478z" fill="#FED848"/>
    <path d="M54.368 116.013a3.515 3.515 0 1 1 3.55-3.437 3.545 3.545 0 0 1-3.55 3.437zM7.58 101.951a3.517 3.517 0 0 1-2.555-5.98 3.516 3.516 0 0 1 6.023 2.448 3.545 3.545 0 0 1-3.469 3.532z" fill="#FEB557"/>
</svg>
